<?xml version="1.0" encoding="UTF-8"?>
<svg version="1.1" xmlns="http://www.w3.org/2000/svg" width="980" height="982">
<path d="M0 0 C0.66 0 1.32 0 2 0 C2.45511963 1.08039551 2.91023926 2.16079102 3.37915039 3.27392578 C16.36865133 34.10223912 29.44054639 64.8949811 42.57501221 95.6618042 C43.97601201 98.94380541 45.37645898 102.22604211 46.77685547 105.50830078 C63.1698084 143.92066514 79.74675978 182.24164887 97.17303467 220.19824219 C97.96664877 221.92733572 98.75898721 223.65701458 99.55126953 225.38671875 C112.07752467 252.72272536 124.91752798 279.90995247 138.05126953 306.95898438 C139.45739638 309.86498592 140.84506978 312.77924645 142.22607422 315.69726562 C152.26820632 336.85600011 162.80867247 357.76949587 173.29101562 378.71240234 C176.07477852 384.2742122 178.85492201 389.83782214 181.63401222 395.401968 C183.80839016 399.75436988 185.98470442 404.10580139 188.1615715 408.45695877 C189.18660191 410.50636247 190.21106052 412.55605229 191.23488235 414.60606003 C197.01056956 426.16785734 202.87607635 437.67191122 208.93417358 449.08853149 C211.37153574 453.68552705 213.70467871 458.3307113 216 463 C219.49136406 470.03677823 223.08259373 477.01029786 226.76220703 483.95019531 C230.65005952 491.2990221 234.45788026 498.68807501 238.2598877 506.08154297 C251.69300503 532.29770512 251.69300503 532.29770512 265.625 558.25 C271.36087867 568.65970024 276.77064751 579.22842096 282.18084717 589.80944824 C287.20814586 599.63654007 292.32417563 609.39664374 297.6640625 619.05859375 C301.5673033 626.14265232 305.2962886 633.30988039 309 640.5 C313.72311873 649.66761021 318.55791951 658.75896682 323.53125 667.79296875 C327.29047572 674.64333498 330.91381383 681.55767485 334.5 688.5 C338.92865146 697.06932956 343.45918551 705.57020613 348.10913086 714.02124023 C353.84477153 724.47825238 359.39024456 735.03629776 364.94604492 745.58959961 C365.32431427 746.30691254 365.70258362 747.02422546 366.09231567 747.76327515 C366.80349918 749.11200607 367.51351808 750.46135201 368.22213745 751.81143188 C369.6578789 754.53310102 371.12392297 757.20121163 372.73803711 759.82202148 C374 762 374 762 374 764 C368.25258579 762.40610046 363.45649919 759.55053667 358.3125 756.625 C332.09725543 742.06956469 304.01489385 731.79125197 275.5625 722.5625 C274.91768677 722.3527655 274.27287354 722.14303101 273.60852051 721.92694092 C265.47462966 719.29219844 257.32445297 716.95343316 249 715 C249.56170898 715.30067383 250.12341797 715.60134766 250.70214844 715.91113281 C297.00756674 740.7638989 339.38113244 770.73998569 380 804 C382.72717279 806.23161996 385.45677868 808.4602244 388.1875 810.6875 C388.77998535 811.17355713 389.3724707 811.65961426 389.98291016 812.16040039 C390.58022949 812.64758545 391.17754883 813.13477051 391.79296875 813.63671875 C392.74610962 814.42296631 392.74610962 814.42296631 393.71850586 815.22509766 C395.45645102 816.57714274 397.2564342 817.84983827 399.08032227 819.08349609 C408.29975248 825.4230675 412.75257643 832.28380793 417.5625 842.25 C418.28619993 843.68756419 419.01330198 845.1234203 419.74365234 846.55761719 C421.18801007 849.39943791 422.61879143 852.2473901 424.03857422 855.1015625 C426.59967821 860.22532275 429.34753366 865.24097166 432.125 870.25 C436.59269281 878.38952752 440.99579486 886.56256614 445.375 894.75 C446.01228509 895.94124527 446.6495735 897.13248876 447.28686523 898.32373047 C447.6024086 898.9135672 447.91795197 899.50340393 448.24305725 900.1111145 C448.71635719 900.99583939 448.71635719 900.99583939 449.19921875 901.8984375 C449.51511459 902.48897919 449.83101044 903.07952087 450.15647888 903.68795776 C457.76192023 917.90269727 465.40448364 932.09740921 473.125 946.25 C473.60308105 947.12873779 474.08116211 948.00747559 474.57373047 948.9128418 C477.16920253 953.67646656 479.79304702 958.42226637 482.44921875 963.15234375 C483.0117334 964.16200195 483.57424805 965.17166016 484.15380859 966.21191406 C485.23825209 968.15733609 486.33071241 970.0983165 487.43212891 972.03417969 C487.91472168 972.90333008 488.39731445 973.77248047 488.89453125 974.66796875 C489.32612549 975.43391357 489.75771973 976.1998584 490.20239258 976.98901367 C491 979 491 979 490 982 C489.29319092 981.59386475 488.58638184 981.18772949 487.8581543 980.76928711 C471.45985114 971.35415128 455.00624723 962.05257544 438.45361328 952.91064453 C435.50840249 951.28126381 432.56634091 949.64648218 429.62599182 948.00836182 C413.86773641 939.23121003 397.98858122 930.76045262 381.94189453 922.51953125 C378.61334366 920.80028638 375.30332462 919.04851433 371.99682617 917.28735352 C348.39813259 904.72969395 324.36304997 892.9961592 300 882 C299.34386719 881.70351563 298.68773437 881.40703125 298.01171875 881.1015625 C236.72231126 853.43377283 173.87036283 830.85915088 108 817 C106.87250531 813.57872368 107.12858028 811.05306074 107.7421875 807.52734375 C107.92136719 806.46193359 108.10054687 805.39652344 108.28515625 804.29882812 C108.47980469 803.18958984 108.67445313 802.08035156 108.875 800.9375 C111.48858245 785.80575884 112.24054325 771.20648092 112.25 755.875 C112.25067474 754.89301636 112.25134949 753.91103271 112.25204468 752.89929199 C112.23548183 737.71286678 111.655977 722.98577805 109 708 C108.8443457 707.05527832 108.68869141 706.11055664 108.52832031 705.13720703 C101.47791531 663.1373393 83.20737933 615.1978943 47.4453125 589.3203125 C29.85393144 577.34341001 10.1771976 570.99606386 -11.07421875 574.62109375 C-37.46958405 580.0057998 -57.57213481 598.36956223 -72.13671875 620.203125 C-74.16099803 623.43242711 -76.09622278 626.6983174 -78 630 C-78.64582031 631.09183594 -79.29164063 632.18367187 -79.95703125 633.30859375 C-108.8060939 683.55927081 -113.69076535 751.21417954 -101.55078125 806.93359375 C-100.99481754 810.0288527 -100.96155134 812.86329867 -101 816 C-102.02879272 816.20979492 -102.02879272 816.20979492 -103.07836914 816.42382812 C-172.27551481 830.63921071 -237.8590992 854.673978 -302 884 C-302.6886615 884.31457153 -303.377323 884.62914307 -304.08685303 884.95324707 C-322.81965234 893.52232252 -341.31433326 902.56100806 -359.75 911.75 C-361.17394073 912.45795212 -361.17394073 912.45795212 -362.62664795 913.1802063 C-375.76751528 919.72240579 -388.69843197 926.58555706 -401.55804443 933.6630249 C-404.9909555 935.54254993 -408.44291531 937.38469115 -411.90234375 939.21484375 C-413.06652832 939.83101562 -414.23071289 940.4471875 -415.43017578 941.08203125 C-416.58759277 941.69433594 -417.74500977 942.30664062 -418.9375 942.9375 C-431.75158876 949.74119346 -444.41282244 956.78425541 -457 964 C-460.14626541 965.80079231 -463.29307099 967.6006403 -466.44012451 969.40005493 C-469.58254883 971.19689691 -472.7242004 972.99504818 -475.86376953 974.796875 C-476.99540527 975.44527344 -478.12704102 976.09367188 -479.29296875 976.76171875 C-480.2986792 977.33881592 -481.30438965 977.91591309 -482.34057617 978.51049805 C-484.53549435 979.7398376 -486.73745161 980.90183545 -489 982 C-488.39738455 977.8294427 -486.9826835 974.78238064 -484.9296875 971.1171875 C-484.28829834 969.96395996 -483.64690918 968.81073242 -482.98608398 967.62255859 C-482.28249001 966.37331568 -481.5787926 965.12413102 -480.875 963.875 C-480.14786725 962.57279203 -479.42139597 961.27021451 -478.69555664 959.96728516 C-477.20002346 957.28486102 -475.7008991 954.60449497 -474.19873047 951.92578125 C-471.54253316 947.18726807 -468.90827048 942.43673153 -466.27392578 937.68603516 C-464.42323563 934.34928166 -462.56952481 931.01422417 -460.71484375 927.6796875 C-456.9742985 920.95438199 -453.23687437 914.22734574 -449.5 907.5 C-445.76312563 900.77265426 -442.0257015 894.04561801 -438.28515625 887.3203125 C-426.26353989 865.70254898 -414.25984883 844.07655341 -402.50463867 822.3125 C-399.04641939 815.91519739 -395.54684593 809.5431521 -392.00488281 803.19189453 C-387.4118624 794.95531998 -382.86008966 786.69603815 -378.30761719 778.43701172 C-377.61003755 777.17154313 -376.91244634 775.90608093 -376.21484375 774.640625 C-375.86624298 774.00822906 -375.51764221 773.37583313 -375.15847778 772.72427368 C-372.75784902 768.37066148 -370.35096101 764.02055199 -367.94140625 759.671875 C-360.66854747 746.53860229 -353.4960018 733.35944068 -346.43994141 720.10839844 C-341.99298482 711.78373334 -337.38444742 703.56375734 -332.70239258 695.36962891 C-328.44621968 687.88258332 -324.45903103 680.27519867 -320.51660156 672.61938477 C-317.01894216 665.86202147 -313.34301331 659.22775384 -309.5625 652.625 C-304.40665848 643.61248121 -299.54775463 634.47643913 -294.79394531 625.24633789 C-291.38490107 618.6360806 -287.89775672 612.07874709 -284.3125 605.5625 C-278.77371005 595.48679495 -273.38928977 585.33293018 -268.02102661 575.16577148 C-262.80027992 565.27816944 -257.54675184 555.40957984 -252.25 545.5625 C-246.12447131 534.16429216 -240.14451068 522.69621502 -234.20703125 511.19921875 C-231.45411662 505.86976459 -228.67493749 500.55487651 -225.875 495.25 C-220.21344876 484.51902306 -214.60121448 473.76257899 -209 463 C-208.47986328 462.00097656 -207.95972656 461.00195312 -207.42382812 459.97265625 C-203.60848399 452.64084439 -199.80624308 445.30230443 -196.01251221 437.95928955 C-194.97361889 435.94895051 -193.93383445 433.93907384 -192.89404297 431.92919922 C-182.07120634 410.99761501 -171.43450171 389.97408522 -160.8893013 368.90153885 C-159.95388092 367.03272632 -159.01777453 365.16425888 -158.08151245 363.29586792 C-151.4146821 349.98808713 -144.80443512 336.6593508 -138.46507263 323.19165039 C-136.48363438 319.00030287 -134.50652054 314.91162154 -132 311 C-128.79155508 312.36068989 -126.34079403 314.29036202 -123.68969727 316.52685547 C-87.95416245 346.57119392 -44.46842239 367.35840102 -2 386 C-7.09394246 381.51408781 -12.37123737 377.4665224 -17.875 373.5 C-27.22343448 366.68375567 -36.16867569 359.46946415 -45 352 C-45.62777344 351.47132324 -46.25554687 350.94264648 -46.90234375 350.39794922 C-54.02975173 344.38749497 -61.01971501 338.24949668 -67.85571289 331.90942383 C-69.8343007 330.07482732 -71.82170176 328.25200145 -73.81713867 326.43554688 C-82.43779262 318.58135886 -90.7681821 310.45006855 -99.02490234 302.21533203 C-101.28173244 299.96840683 -103.54901985 297.73236011 -105.81640625 295.49609375 C-107.25846415 294.06055015 -108.6998948 292.6243761 -110.140625 291.1875 C-110.81651672 290.52395508 -111.49240845 289.86041016 -112.18878174 289.17675781 C-112.80743103 288.55510742 -113.42608032 287.93345703 -114.06347656 287.29296875 C-114.60828674 286.7518042 -115.15309692 286.21063965 -115.7144165 285.65307617 C-117.21228716 283.72702913 -117.71287958 282.41814372 -118 280 C-117.03483871 277.39408331 -116.00398386 275.00803507 -114.79296875 272.51953125 C-114.44110504 271.77146713 -114.08924133 271.02340302 -113.72671509 270.25267029 C-112.96018492 268.6250867 -112.18856102 266.9998947 -111.4125061 265.37683105 C-109.30880544 260.9731102 -107.2464025 256.55007391 -105.1796875 252.12890625 C-104.74958878 251.21108368 -104.31949005 250.29326111 -103.87635803 249.34762573 C-99.37328496 239.71336143 -95.0702659 229.99469585 -90.8125 220.25 C-90.43847046 219.39451569 -90.06444092 218.53903137 -89.67907715 217.65762329 C-87.10960758 211.77597929 -84.55237305 205.88907997 -82 200 C-81.67020142 199.23985596 -81.34040283 198.47971191 -81.00061035 197.6965332 C-64.96150376 160.72100587 -49.70601952 123.42637482 -34.64549255 86.04335022 C-31.76846846 78.90272438 -28.88430913 71.76501237 -25.99609375 64.62890625 C-17.28497581 43.10410289 -8.59456344 21.57164611 0 0 Z " fill="#020202" transform="translate(489,0)"/>
</svg>
